PathFileType	4	(X/Y/Z)	/Users/niels/Desktop/University/Third Semester/Perception and Action/Exam/Gymnastics Motion Tracking/Code for Gym Tracking/Analyzed Data/Start Salto/stsalto_good_id16_1_Sports2D/stsalto_good_id16_1_Sports2D_px_person00.trc
DataRate	CameraRate	NumFrames	NumMarkers	Units	OrigDataRate	OrigDataStartFrame	OrigNumFrames
29.837837837837835	29.837837837837835	9	22	m	29.837837837837835	23	185
Frame#	Time	Hip			RHip			RKnee			RAnkle			RBigToe			RSmallToe			RHeel			LHip			LKnee			LAnkle			LBigToe			LSmallToe			LHeel			Neck			Head			Nose			RShoulder			RElbow			RWrist			LShoulder			LElbow			LWrist		
		X1	Y1	Z1	X2	Y2	Z2	X3	Y3	Z3	X4	Y4	Z4	X5	Y5	Z5	X6	Y6	Z6	X7	Y7	Z7	X8	Y8	Z8	X9	Y9	Z9	X10	Y10	Z10	X11	Y11	Z11	X12	Y12	Z12	X13	Y13	Z13	X14	Y14	Z14	X15	Y15	Z15	X16	Y16	Z16	X17	Y17	Z17	X18	Y18	Z18	X19	Y19	Z19	X20	Y20	Z20	X21	Y21	Z21	X22	Y22	Z22
23	0.7708333333333334	0.43821755782994704	-0.5927461984998373	0.0	0.4285182926482687	-0.5996891190486473	0.0	0.5121981184758276	-0.7048741877888126	0.0	0.5238488815996764	-0.8312694445198646	0.0	0.5748636859597407	-0.848428249214775	0.0	0.5602444862168258	-0.8527909657110222	0.0	0.5160630002550826	-0.8474233160996816	0.0	0.45290781031511024	-0.6002156986634589	0.0	0.5373044535636473	-0.6988119978500209	0.0	0.5542569259582207	-0.8242884053055887	0.0	0.5970626709381803	-0.8412050816382732	0.0	0.5937940976157547	-0.8373371096065474	0.0	0.5464192132796809	-0.8409682975808237	0.0	0.5052376721374985	-0.4322538733937595	0.0	0.552095515203822	-0.37392567920721476	0.0	0.5459463891927715	-0.41715122948929023	0.0	0.49550114122849076	-0.42634596290658555	0.0	0.5676180331170042	-0.38637125875255396	0.0	0.6215038205981929	-0.32221678768073553	0.0	0.5152129344342928	-0.444344281652371	0.0	0.5735055410379901	-0.3989717499266408	0.0	0.6223221896362895	-0.3265363370683238	0.0
24	0.8043478260869565	0.45969688393560704	-0.5921304734730672	0.0	0.45053314905256847	-0.5989947333317202	0.0	0.5265095625605517	-0.7076037459632809	0.0	0.5272393762184383	-0.8348519193464939	0.0	0.5744771117268096	-0.8540523179283929	0.0	0.5604390593667194	-0.856694302689984	0.0	0.5183936268178663	-0.8499439521757278	0.0	0.473985087593993	-0.6002345832548267	0.0	0.5510803724719016	-0.7030293826814544	0.0	0.5558217925348891	-0.8290075352014107	0.0	0.5927255387549302	-0.8478376231474468	0.0	0.5911348606860498	-0.8436780876489854	0.0	0.5463187495346034	-0.8437089497360618	0.0	0.5260629428813699	-0.4311351592428472	0.0	0.5721840886570533	-0.3725087093333533	0.0	0.5668361982469017	-0.4150384708827959	0.0	0.5182512440170731	-0.4260926602535403	0.0	0.5923044683271499	-0.38624147516925994	0.0	0.6462599611700608	-0.32157221165754635	0.0	0.5339793692377822	-0.4436206453571794	0.0	0.5951449400209653	-0.3980807480761645	0.0	0.6467486735311279	-0.3263569383718599	0.0
25	0.8378623188405798	0.47884093101439307	-0.5879329834854942	0.0	0.4700449117249911	-0.5946043166322527	0.0	0.5371218400432193	-0.7069389092470734	0.0	0.529219278337438	-0.8348858053766276	0.0	0.5731703277569846	-0.8560131303910162	0.0	0.559874234526823	-0.8574433870926774	0.0	0.5194826582175677	-0.8495949737880831	0.0	0.492512560181543	-0.5964668819214033	0.0	0.561004150871502	-0.7037332051980807	0.0	0.5553991296126528	-0.8299576033219898	0.0	0.5882764384048322	-0.8508926396504065	0.0	0.5880263837694438	-0.8466124866946857	0.0	0.5447044519143293	-0.8435421063659099	0.0	0.5458276764520777	-0.4277877000065802	0.0	0.5934084785513407	-0.36951234542432365	0.0	0.5875413162251734	-0.41126747629708227	0.0	0.5390535954298811	-0.4235942427635328	0.0	0.6164179570151095	-0.3857374671013811	0.0	0.6719254117381706	-0.32197790820910865	0.0	0.5518133264110793	-0.44094037881704123	0.0	0.6178369428993656	-0.396095203612691	0.0	0.6731802122771396	-0.32704693700481313	0.0
26	0.871376811594203	0.49631176531421073	-0.5804583383244507	0.0	0.48728219370266307	-0.5868385190808966	0.0	0.5442724768325831	-0.7032123797924879	0.0	0.5303331625987797	-0.8319270679753914	0.0	0.571655925235358	-0.8553407789021598	0.0	0.5586306984048522	-0.856144049054593	0.0	0.5196628746237844	-0.8468725375472	0.0	0.5094645208524708	-0.5893379692823246	0.0	0.5679099974927222	-0.7010064743636016	0.0	0.5547836379659301	-0.8273158912219812	0.0	0.5854536390796731	-0.8510121671231861	0.0	0.5860461848642121	-0.8466616012792993	0.0	0.5433008284634833	-0.8406114277903383	0.0	0.5652236988033386	-0.4221964556542657	0.0	0.6159110902055943	-0.36547269031501683	0.0	0.6085053097705322	-0.40629511381456446	0.0	0.5581594781915729	-0.4187197051051724	0.0	0.6399105359893869	-0.3850239348798232	0.0	0.698492919110355	-0.3239932517403121	0.0	0.5698199797138626	-0.43622076908109736	0.0	0.6416687119618499	-0.39353228456450273	0.0	0.7011551439327949	-0.3284690596229691	0.0
27	0.9048913043478262	0.5122425759903011	-0.5704618385974133	0.0	0.5021785899432493	-0.5763162606391405	0.0	0.5482513478987695	-0.6969196155528911	0.0	0.5307999640279726	-0.8267255548362221	0.0	0.570513732805806	-0.8528782406085794	0.0	0.5570323346111843	-0.853722076821502	0.0	0.5190943628356529	-0.8423582608242023	0.0	0.5251872978904457	-0.5795285750555585	0.0	0.572477401569711	-0.6952944756769749	0.0	0.5549018271477709	-0.8217791805157018	0.0	0.5846679440136718	-0.8488957560140679	0.0	0.5855988575059684	-0.8444476586868104	0.0	0.542914859764124	-0.8354751103113759	0.0	0.5841246603767954	-0.414623742495818	0.0	0.639294118523811	-0.36092289334364813	0.0	0.6295189051003703	-0.400627285040445	0.0	0.5756967057019587	-0.41150362669247553	0.0	0.662188976564665	-0.38410779817212765	0.0	0.7250263917888713	-0.327968962961644	0.0	0.5878907784362682	-0.4292819167493545	0.0	0.6650696254466639	-0.39090416331913225	0.0	0.7283434031273985	-0.33096373399866713	0.0
28	0.9384057971014493	0.5264173993131376	-0.5589823074518363	0.0	0.5148033170881076	-0.5639512287323171	0.0	0.5496517027781728	-0.6887627334078577	0.0	0.5309993787377644	-0.8199383067516457	0.0	0.5702550749131559	-0.8492279134786163	0.0	0.5559085884560538	-0.8507088492840638	0.0	0.5183280701208209	-0.8365168416878269	0.0	0.5394101616494481	-0.5679136334726737	0.0	0.5751890922304758	-0.6874107869116215	0.0	0.5559514873313531	-0.8142782875597482	0.0	0.585728484700632	-0.8452389964102792	0.0	0.5865823117070421	-0.8406574340994032	0.0	0.543652410066483	-0.8288852600099224	0.0	0.6020902548306634	-0.40560261228257755	0.0	0.6629663414878924	-0.35639348700815393	0.0	0.6501332237361602	-0.3948387823936791	0.0	0.5920856968146226	-0.4022342369956284	0.0	0.6827061056128716	-0.38303316056675074	0.0	0.7503496629985763	-0.33390797215911194	0.0	0.6050618364255729	-0.4201626360400388	0.0	0.685269921924311	-0.38867856664601413	0.0	0.7508452442787594	-0.33528849782875386	0.0
29	0.9719202898550725	0.5386352212649623	-0.5469110798377873	0.0	0.5255438356502086	-0.5506531462340897	0.0	0.54945362237717	-0.6794163531826203	0.0	0.5314571787594567	-0.8119694428446668	0.0	0.5711342280525012	-0.8448454013697438	0.0	0.5559764067314781	-0.8472211221495619	0.0	0.5181435489320696	-0.8294966108518863	0.0	0.5517433049035941	-0.5553913258168958	0.0	0.576532016311182	-0.6782394380926455	0.0	0.5577601421335252	-0.805627940398291	0.0	0.5882725687790333	-0.8406164247940568	0.0	0.5887665564976177	-0.8359336596820007	0.0	0.545340449779473	-0.8214315150477384	0.0	0.6189344774054739	-0.3958814801558241	0.0	0.6862756308493242	-0.35225882046938867	0.0	0.6699871024844483	-0.38937108365645273	0.0	0.608080656384841	-0.39158393802434943	0.0	0.7013349824331425	-0.3820185101317292	0.0	0.773700934156688	-0.3414358406492676	0.0	0.6207160994474209	-0.409436467143044	0.0	0.6994500830507232	-0.38722518796380495	0.0	0.7644267190437557	-0.3421855228946001	0.0
30	1.0054347826086958	0.548956038930933	-0.5346499195494251	0.0	0.5349589805191951	-0.5369726054156827	0.0	0.5488052639656994	-0.6692386894170419	0.0	0.5324759176355595	-0.802952168290744	0.0	0.5730390846301988	-0.8400069438956255	0.0	0.5573186745933136	-0.8430489901218549	0.0	0.5189934050609557	-0.8211077303509904	0.0	0.562136849283575	-0.5426391350830232	0.0	0.5771477236243653	-0.668344095310957	0.0	0.5601027554602395	-0.7963202331903834	0.0	0.5916742816827298	-0.8353648417665738	0.0	0.5917852914082886	-0.8307104934657655	0.0	0.547844675018569	-0.8132817131558283	0.0	0.6349246927742778	-0.3862730480049432	0.0	0.7086265954529399	-0.3485952679666386	0.0	0.6889676288568142	-0.38434146177402057	0.0	0.6244755096933647	-0.3805269907297387	0.0	0.7183358951142845	-0.38138458513041446	0.0	0.7948286319047693	-0.35007509987260454	0.0	0.6352625641962896	-0.3981042296239788	0.0	0.7058780984689702	-0.3867776548797422	0.0	0.7660691450677409	-0.35216709381160677	0.0
31	1.0389492753623188	0.5578332206688783	-0.5221218952601799	0.0	0.543665345838692	-0.5230040780694544	0.0	0.5487372773853393	-0.6582254033712506	0.0	0.5339698676280846	-0.7927742902848003	0.0	0.5754426656225292	-0.8346235337744216	0.0	0.5593616559834694	-0.8377398799270522	0.0	0.5207495717132635	-0.8110002772444405	0.0	0.5710470802632635	-0.5298934107539651	0.0	0.5778001519484003	-0.6578171800837768	0.0	0.5627696771268239	-0.7864591030995134	0.0	0.5949886014889564	-0.8294765897780505	0.0	0.5950394539805529	-0.825013589929294	0.0	0.551021480813488	-0.8041706843242868	0.0	0.6507012713367675	-0.377353210281073	0.0	0.7298965712778853	-0.3453506529970386	0.0	0.7073132470074321	-0.37964404874424235	0.0	0.6419234679137694	-0.3699765857333305	0.0	0.7342823418735224	-0.38141357593664366	0.0	0.8139184580595701	-0.35960127989559076	0.0	0.649670741407215	-0.38707550882173136	0.0	0.704938290998112	-0.38743613852694825	0.0	0.7559772836465425	-0.36551360725520216	0.0
